<svg xmlns="http://www.w3.org/2000/svg" fill="none" viewBox="0 0 20 20"><path fill="#fff" d="M1.94 4.063 1.938 16.07 18.059 16l.003-8.03h-2.576c-.827 0-1.5-.672-1.5-1.5V4.064H1.941z"/><path fill="#fff" d="m17.775 6.97-2.789-2.366V6.47a.5.5 0 0 0 .5.5h2.29z"/><path fill="#605E5C" fill-rule="evenodd" d="m18.735 6.503-3.731-3.196a1.016 1.016 0 0 0-.66-.245H1.94c-.553 0-1.004.418-1.004.932v12.075c0 .512.45.93 1.004.93h16.12c.553 0 1.004-.418 1.004-.93V7.215a.934.934 0 0 0-.328-.712zm-3.75-1.9 2.79 2.368h-2.29a.5.5 0 0 1-.5-.5V4.604zm-13.044-.54-.004 12.005L18.058 16l.003-8.03h-2.575a1.5 1.5 0 0 1-1.5-1.5V4.065H1.94z" clip-rule="evenodd" opacity=".64"/><path fill="#C8C6C4" fill-rule="evenodd" d="M8.5 9h-4a.5.5 0 0 1 0-1h4a.5.5 0 0 1 0 1zm0 2h-4a.5.5 0 0 1 0-1h4a.5.5 0 0 1 0 1zm-4 2h4a.5.5 0 0 0 0-1h-4a.5.5 0 0 0 0 1z" clip-rule="evenodd"/><path fill="#B7472A" d="M14 9c.547.018 1 .448 1 1h-1V9z"/><path fill="#C8C6C4" d="M15 11a2.003 2.003 0 0 1-2.433 1.955 1.99 1.99 0 0 1-1.522-1.522A2.003 2.003 0 0 1 13 9v2h2z"/></svg>