<svg xmlns="http://www.w3.org/2000/svg" fill="none" viewBox="0 0 20 20"><path fill="#fff" d="M16 7h-2.5c-.827 0-1.5-.673-1.5-1.5V2H4v16h12V7z"/><path fill="#fff" d="M16 6v-.293l-3-3V5.5c0 .275.225.5.5.5H16z"/><path fill="#605E5C" fill-rule="evenodd" d="M16.707 5 13 1.293A1 1 0 0 0 12.293 1H4a1 1 0 0 0-1 1v16a1 1 0 0 0 1 1h12a1 1 0 0 0 1-1V5.707A1 1 0 0 0 16.707 5zM16 5.707V6h-2.5a.501.501 0 0 1-.5-.5V2.707l3 3zM4 2.2v15.6c0 .11.09.2.2.2h11.6a.2.2 0 0 0 .2-.2V7h-2.5A1.5 1.5 0 0 1 12 5.5V2H4.2a.2.2 0 0 0-.2.2z" clip-rule="evenodd" opacity=".64"/><path fill="#BDBBB8" fill-rule="evenodd" d="M5.444 13h4.112c.245 0 .444-.224.444-.5s-.199-.5-.444-.5H5.444c-.245 0-.444.224-.444.5s.2.5.444.5zm0 2h4.112c.245 0 .444-.224.444-.5s-.199-.5-.444-.5H5.444c-.245 0-.444.224-.444.5s.2.5.444.5z" clip-rule="evenodd"/><path fill="#0078D7" d="M14.556 11h-4.111c-.246 0-.445-.224-.445-.5s.199-.5.444-.5h4.111c.246 0 .445.224.445.5s-.199.5-.444.5z"/><path fill="#69AFE5" d="M14.556 9h-4.111C10.198 9 10 8.776 10 8.5s.199-.5.444-.5h4.111c.246 0 .445.224.445.5s-.199.5-.444.5z"/><path fill="#0078D7" fill-rule="evenodd" d="M8.124 11H9L7.403 7h-.85L5 11h.853l.33-.909h1.593l.348.909zM6.968 7.933l.55 1.485H6.43l.538-1.485z" clip-rule="evenodd"/><path fill="#69AFE5" d="M14 15h-2a1 1 0 0 1-1-1v-1a1 1 0 0 1 1-1h2a1 1 0 0 1 1 1v1a1 1 0 0 1-1 1z"/></svg>